<svg xmlns="http://www.w3.org/2000/svg" viewBox="0 0 64 64" role="img" aria-label="Emerald">
  <defs>
    <linearGradient id="edge" x1="0" y1="0" x2="1" y2="1">
      <stop stop-color="#baffd8"/>
      <stop offset=".45" stop-color="#28d77c"/>
      <stop offset="1" stop-color="#087342"/>
    </linearGradient>
  </defs>
  <path fill="#092c24" d="M18 3h28l15 15v28L46 61H18L3 46V18z"/>
  <path fill="url(#edge)" d="M20 7h24l13 13v24L44 57H20L7 44V20z"/>
  <path fill="#12a960" d="m20 7 12 10L44 7 57 20 47 32l10 12-13 13-12-10-12 10L7 44l10-12L7 20z"/>
  <path fill="#62efa4" d="m20 7 12 10-15 15L7 20zm24 0L32 17l15 15 10-12z"/>
  <path fill="#087342" d="m17 32 15 15-12 10L7 44zm30 0L32 47l12 10 13-13z"/>
  <path fill="#22cf79" d="m32 17 15 15-15 15-15-15z"/>
  <path fill="#a9ffd0" d="m32 17 8 15-8 7-8-7z" opacity=".75"/>
</svg>
